HIERARCHY
ROOT root
{
	OFFSET	0	13.1	24.9
	CHANNELS 6  Xposition Yposition Zposition Xrotation Yrotation Zrotation
	JOINT spine_1
	{
		OFFSET	0	9.99999	0
		CHANNELS 3  Xrotation Yrotation Zrotation
		JOINT spine_2
		{
			OFFSET	0	112	-10
			CHANNELS 3  Xrotation Yrotation Zrotation
			JOINT spine_3
			{
				OFFSET	0	206.5	19.3
				CHANNELS 3  Xrotation Yrotation Zrotation
				JOINT spine_4
				{
					OFFSET	0	110.4	14.6
					CHANNELS 3  Xrotation Yrotation Zrotation
					JOINT neck_1
					{
						OFFSET	0	71.8	-50.3
						CHANNELS 3  Xrotation Yrotation Zrotation
						JOINT neck_2
						{
							OFFSET	0	86.2	-25.8
							CHANNELS 3  Xrotation Yrotation Zrotation
							JOINT head_ee
							{
								OFFSET	0	179.8	-8.7
								CHANNELS 3  Xrotation Yrotation Zrotation
								End Site
								{
									OFFSET	1	0	0
								}
							}
						}
					}
					JOINT left_clavicle
					{
						OFFSET	-43.2	22.4	-70.8
						CHANNELS 3  Xrotation Yrotation Zrotation
						JOINT left_shoulder
						{
							OFFSET	-93.9	-5.79999	48.7
							CHANNELS 3  Xrotation Yrotation Zrotation
							JOINT left_elbow
							{
								OFFSET	-291.4	-30.8	15.2
								CHANNELS 3  Xrotation Yrotation Zrotation
								JOINT left_lowarm_twist
								{
									OFFSET	-110.7	-3.89999	13.6
									CHANNELS 3  Xrotation Yrotation Zrotation
									JOINT left_hand
									{
										OFFSET	-110.7	-3.89999	13.6
										CHANNELS 3  Xrotation Yrotation Zrotation
										JOINT left_ee
										{
											OFFSET	-80.8	-5.10001	12.1
											CHANNELS 3  Xrotation Yrotation Zrotation
											End Site
											{
												OFFSET	1	0	0
											}
										}
									}
								}
							}
						}
					}
					JOINT right_clavicle
					{
						OFFSET	43.2	22.4	-70.8
						CHANNELS 3  Xrotation Yrotation Zrotation
						JOINT right_shoulder
						{
							OFFSET	93.9	-5.79999	48.7
							CHANNELS 3  Xrotation Yrotation Zrotation
							JOINT right_elbow
							{
								OFFSET	291.4	-30.8	15.2
								CHANNELS 3  Xrotation Yrotation Zrotation
								JOINT right_lowarm_twist
								{
									OFFSET	110.7	-3.89999	13.6
									CHANNELS 3  Xrotation Yrotation Zrotation
									JOINT right_hand
									{
										OFFSET	110.7	-3.89999	13.6
										CHANNELS 3  Xrotation Yrotation Zrotation
										JOINT right_ee
										{
											OFFSET	80.8	-5.10001	12.1
											CHANNELS 3  Xrotation Yrotation Zrotation
											End Site
											{
												OFFSET	1	0	0
											}
										}
									}
								}
							}
						}
					}
				}
			}
		}
	}
	JOINT left_hip
	{
		OFFSET	-82.8	-127.5	0.300001
		CHANNELS 3  Xrotation Yrotation Zrotation
		JOINT left_knee
		{
			OFFSET	-28.2	-396.7	2.2
			CHANNELS 3  Xrotation Yrotation Zrotation
			JOINT left_ankle
			{
				OFFSET	-11.7	-411.3	35.4
				CHANNELS 3  Xrotation Yrotation Zrotation
				JOINT left_toes
				{
					OFFSET	0	-60	-88.6
					CHANNELS 3  Xrotation Yrotation Zrotation
					JOINT left_foot_ee
					{
						OFFSET	-22.5	-16.5	-42.2
						CHANNELS 3  Xrotation Yrotation Zrotation
						End Site
						{
							OFFSET	1	0	0
						}
					}
				}
			}
		}
	}
	JOINT right_hip
	{
		OFFSET	82.8	-127.5	0.300001
		CHANNELS 3  Xrotation Yrotation Zrotation
		JOINT right_knee
		{
			OFFSET	28.2	-396.7	2.2
			CHANNELS 3  Xrotation Yrotation Zrotation
			JOINT right_ankle
			{
				OFFSET	11.7	-411.3	35.4
				CHANNELS 3  Xrotation Yrotation Zrotation
				JOINT right_toes
				{
					OFFSET	0	-60	-88.6
					CHANNELS 3  Xrotation Yrotation Zrotation
					JOINT right_foot_ee
					{
						OFFSET	22.5	-16.5	-42.2
						CHANNELS 3  Xrotation Yrotation Zrotation
						End Site
						{
							OFFSET	1	0	0
						}
					}
				}
			}
		}
	}
}
MOTION
Frames: 14
Frame Time: 0.02
2779.63213266 712.764 -1612.79711293 -6.92963230778 55.7930547889 1.10978273219 2.1947 0.512683 1.58173 2.19599 0.411008 1.61114 2.20756 0.127253 1.65785 2.20393 0.387448 1.61696 -4.01542 17.9177 6.48065 -3.69654 27.9353 9.44493 -0.0 0.0 -0.0 2.09397 4.05846 4.35817 -5.55765 -18.6724 56.6616 1.24542 -31.671 0.353265 4.40365 0.134208 -0.546338 -1.43624 5.17227 -7.28016 -0.0 0.0 -0.0 11.3317 18.5606 -22.5027 -15.4943 16.5839 -61.5658 0.690809 18.8913 -0.11493 1.90067 -0.0630795 0.234551 2.85145 22.8779 -9.00249 0.0 0.0 0.0 1.30527 4.56234 14.4236 2.54834 -0.113298 -0.374583 23.8284 17.0312 -3.24547 -24.5813 0.0 0.0 -0.0 0.0 -0.0 22.2715 24.8098 4.50925 -55.2158 1.70613 -7.97768 25.7152 -1.69765 3.42554 -17.8184 0.0 0.0 0.0 0.0 0.0 
2760.29632425 717.558 -1593.26944642 -6.31413146024 56.4239944342 0.513026088457 2.3056 0.438021 1.6123 2.30699 0.334552 1.6369 2.31647 0.0506444 1.66996 2.31271 0.313712 1.64102 -3.45749 18.1398 6.2301 -3.09363 28.3828 9.10703 -0.0 0.0 -0.0 1.93229 6.08425 4.21924 -5.32778 -18.0526 55.6449 1.46462 -35.9597 0.475336 1.16636 0.039633 -0.143692 -1.55922 5.81415 -7.79774 -0.0 0.0 -0.0 11.1311 18.5668 -22.0471 -15.4746 15.4572 -61.2462 0.524268 14.5587 -0.0669686 3.48628 -0.109722 0.431713 2.81252 26.7872 -6.7668 0.0 0.0 0.0 -2.21791 3.9169 16.7233 4.86823 -0.230864 -0.711003 23.8844 17.5575 -3.25776 -25.2768 0.0 0.0 -0.0 0.0 -0.0 24.7032 24.8729 4.1133 -53.4998 1.54044 -7.77155 17.4756 -6.78471 2.41312 -16.8289 0.0 0.0 0.0 0.0 0.0 
2748.28528932 715.302 -1573.01999606 -4.91948961224 55.3014577836 -1.40960667739 2.35857 0.528422 1.66766 2.36002 0.421249 1.6979 2.37243 0.12742 1.74471 2.36841 0.401325 1.70271 -4.47394 18.3229 5.68049 -4.187 29.421 8.7956 -0.0 0.0 -0.0 1.95808 8.10473 4.41966 -4.09949 -17.7257 54.464 1.65545 -39.3508 0.591971 -1.4671 -0.053997 0.179564 -1.80879 5.36299 -9.66328 -0.0 0.0 -0.0 11.245 18.8911 -22.2851 -15.7604 14.7425 -61.09 0.339693 9.5521 -0.0283819 4.02524 -0.12433 0.499009 2.60796 27.4188 -5.13279 0.0 0.0 0.0 -4.20458 5.8989 18.3378 6.3587 -0.313565 -0.924574 25.3392 20.2169 -3.4666 -25.5521 0.0 0.0 -0.0 0.0 -0.0 27.7292 20.0986 3.9744 -49.5677 1.18473 -7.28145 13.1752 -8.4282 1.85141 -15.7628 0.0 0.0 0.0 0.0 0.0 
2735.25155567 713.308 -1562.04945685 -5.08035255762 56.1327375101 -1.23242253908 2.39758 0.483558 1.62514 2.39897 0.379181 1.65261 2.40981 0.094721 1.69289 2.40599 0.360856 1.6567 -4.84967 18.0692 5.38107 -4.60505 29.2737 8.5385 -0.0 0.0 -0.0 1.96081 9.14824 4.5017 -2.18191 -18.2218 53.3274 1.85657 -42.6003 0.723908 -3.5817 -0.139886 0.435849 -1.84779 5.28255 -9.96101 -0.0 0.0 -0.0 11.1047 18.3167 -22.0026 -16.4214 13.8172 -60.4174 0.254741 7.19238 -0.0160099 4.71796 -0.142174 0.585698 2.46934 28.307 -3.80236 0.0 0.0 0.0 -5.36294 4.0876 19.4228 6.81337 -0.339899 -0.989298 26.6502 19.3639 -3.60989 -25.4773 0.0 0.0 -0.0 0.0 -0.0 29.7392 21.3809 1.39667 -47.4705 1.00907 -7.01055 8.98873 -14.6403 1.29084 -15.3903 0.0 0.0 0.0 0.0 0.0 
2726.3627503 710.5 -1558.6554209 -4.61416680403 54.7796408999 -1.85563945421 2.40097 0.570503 1.73203 2.40253 0.45915 1.76481 2.41658 0.154853 1.81696 2.41224 0.43982 1.76973 -7.68895 19.2147 6.22495 -7.68968 31.5366 10.3217 -0.0 0.0 -0.0 1.76443 11.1972 4.31562 -0.33349 -17.1886 51.4492 2.15946 -46.9237 0.937342 -5.79427 -0.239832 0.700475 -1.89492 5.58627 -10.1309 -0.0 0.0 -0.0 11.26 18.9199 -22.3175 -16.6569 13.1983 -60.596 0.192134 5.43702 -0.00912296 6.0718 -0.174015 0.755705 1.89517 25.6478 -1.41812 0.0 0.0 0.0 -6.03534 4.29927 20.2184 6.20812 -0.304957 -0.903094 28.059 24.7427 -3.87398 -25.0223 0.0 0.0 -0.0 0.0 -0.0 30.3864 13.1082 2.04296 -40.7638 0.516071 -6.10486 8.02918 -9.45259 1.14919 -16.9794 0.0 0.0 0.0 0.0 0.0 
2720.71674827 710.912 -1545.53503014 -4.91916302077 55.5959790365 -1.39997241667 2.40426 0.602737 1.75929 2.40585 0.489587 1.79406 2.42109 0.180082 1.8509 2.41662 0.47009 1.79926 -8.32246 19.7845 5.48983 -8.43954 33.2859 9.93627 -0.0 0.0 -0.0 1.64178 12.6781 4.22153 0.478236 -17.01 49.8791 2.43975 -50.3873 1.14787 -8.03653 -0.35149 0.96457 -1.79161 4.67809 -9.87133 -0.0 0.0 -0.0 11.4775 19.6696 -22.7624 -16.8281 11.0882 -60.3696 0.153438 4.34673 -0.00582305 7.38895 -0.201129 0.921771 1.35341 23.83 1.25172 0.0 0.0 0.0 -6.2625 4.25964 20.4163 5.57635 -0.26946 -0.812733 28.4333 25.7897 -3.94282 -24.8791 0.0 0.0 -0.0 0.0 -0.0 30.2765 10.1465 1.98941 -34.7946 0.16923 -5.256 5.62982 -3.61048 0.814107 -17.7219 0.0 0.0 0.0 0.0 0.0 
2713.13739432 713.191 -1539.01414863 -5.48398642805 56.4741799616 -0.463200286392 2.06983 0.459081 1.86667 2.0717 0.339391 1.89209 2.08292 0.00407315 1.92227 2.07789 0.307554 1.89752 -7.17073 20.4431 3.76999 -7.19154 35.4608 8.05792 -0.0 0.0 -0.0 1.66566 13.042 4.28859 3.44943 -16.6789 48.8197 2.63693 -52.5553 1.30215 -8.5134 -0.376568 1.02017 -1.56049 4.22481 -8.5407 -0.0 0.0 -0.0 11.609 20.0509 -23.0356 -16.8332 9.69584 -60.3826 0.17786 5.03526 -0.00782038 8.26186 -0.21699 1.03215 0.867697 20.3916 2.9088 0.0 0.0 0.0 -5.95993 3.82922 19.8896 4.96442 -0.236032 -0.724848 29.0275 26.8193 -4.03944 -24.8295 0.0 0.0 -0.0 0.0 -0.0 32.2018 9.05945 -0.65161 -27.6503 -0.126868 -4.20037 4.97141 2.4706 0.730623 -17.4976 0.0 0.0 0.0 0.0 0.0 
2697.11629846 711.604 -1538.03489669 -2.94903651897 56.4300078333 -3.81912441006 1.83544 0.402085 2.143 1.83796 0.264938 2.16423 1.84807 -0.125712 2.17675 1.84153 0.219561 2.1693 -9.21195 21.1432 5.27724 -9.5193 36.2219 10.3893 -0.0 0.0 -0.0 1.78435 13.0247 4.4835 4.89078 -17.2649 48.3854 2.76863 -53.8933 1.40765 -10.3882 -0.479632 1.2367 -1.81356 4.76887 -9.9752 -0.0 0.0 -0.0 11.7427 20.4182 -23.3143 -16.6248 7.25896 -60.2853 0.157363 4.45748 -0.00612429 9.06253 -0.230058 1.13359 0.443465 18.8202 5.04392 0.0 0.0 0.0 -8.26004 3.52951 21.7454 4.53846 -0.213321 -0.663468 28.8417 27.6044 -4.03833 -24.3869 0.0 0.0 -0.0 0.0 -0.0 33.8253 5.02955 -0.860271 -25.9997 -0.176384 -3.9519 5.24655 7.92793 0.78804 -17.6306 0.0 0.0 0.0 0.0 0.0 
2687.22580742 704.98 -1534.91939715 -2.4791107871 56.6430343881 -4.45498131879 1.66868 0.335398 2.31102 1.67163 0.187703 2.32767 1.67945 -0.237805 2.32309 1.67194 0.131964 2.33149 -8.15082 21.9186 5.00712 -8.32125 37.6178 9.95363 -0.0 0.0 -0.0 1.8258 12.8803 4.54176 7.13696 -17.6465 47.0687 2.91617 -55.2966 1.52791 -11.0088 -0.515308 1.30763 -1.80765 5.29894 -9.68594 -0.0 0.0 -0.0 12.2521 23.4634 -24.224 -17.7466 4.14728 -60.3745 0.160843 4.55565 -0.0063978 9.96859 -0.243135 1.24858 -0.0165328 15.7717 6.82611 0.0 0.0 0.0 -8.82728 3.71015 22.3313 3.55948 -0.16286 -0.521785 28.8927 26.948 -4.02679 -24.0933 0.0 0.0 -0.0 0.0 -0.0 34.7206 3.67342 -2.11291 -21.8022 -0.269873 -3.31468 5.40787 14.1208 0.842973 -17.3014 0.0 0.0 0.0 0.0 0.0 
2684.91843198 704.98 -1543.63230327 -2.41442454876 55.6271533608 -4.53288027851 1.66868 0.335398 2.31102 1.67163 0.187703 2.32767 1.67945 -0.237805 2.32309 1.67194 0.131964 2.33149 -8.15082 21.9186 5.00712 -8.32125 37.6178 9.95363 -0.0 0.0 -0.0 1.8258 12.8803 4.54176 7.13696 -17.6465 47.0687 2.91617 -55.2966 1.52791 -11.0088 -0.515308 1.30763 -1.80765 5.29894 -9.68594 -0.0 0.0 -0.0 12.2521 23.4634 -24.224 -17.7466 4.14728 -60.3745 0.160843 4.55565 -0.0063978 9.96859 -0.243135 1.24858 -0.0165328 15.7717 6.82611 0.0 0.0 0.0 -8.82728 3.71015 22.3313 3.55948 -0.16286 -0.521785 28.8927 26.948 -4.02679 -24.0933 0.0 0.0 -0.0 0.0 -0.0 34.7206 3.67342 -2.11291 -21.8022 -0.269873 -3.31468 5.40787 14.1208 0.842973 -17.3014 0.0 0.0 0.0 0.0 0.0 
2677.86592279 704.04 -1543.78532598 -2.95271891396 56.0024361838 -3.85308825796 1.48158 0.267385 2.46978 1.48497 0.109734 2.48178 1.49004 -0.350677 2.45934 1.4816 0.042007 2.48385 -8.68049 22.1846 5.08372 -8.95267 38.2018 10.2966 -0.0 0.0 -0.0 1.91387 12.8174 4.68335 9.08632 -17.9258 45.9405 3.21023 -57.8242 1.77335 -11.5729 -0.548399 1.37177 -1.85072 5.55498 -9.85156 -0.0 0.0 -0.0 12.3699 23.4412 -24.4969 -17.6429 2.0118 -60.4529 0.191946 5.43174 -0.00910526 10.7407 -0.252842 1.34673 -0.31077 14.0347 8.07862 0.0 0.0 0.0 -8.28836 4.14557 22.089 3.62428 -0.166125 -0.53119 28.9639 27.2454 -4.04321 -23.8767 0.0 0.0 -0.0 0.0 -0.0 35.7495 2.53155 -3.34153 -18.7978 -0.308007 -2.85532 5.54405 18.8908 0.897452 -17.009 0.0 0.0 0.0 0.0 0.0 
2657.06286162 702.185 -1544.99226895 -3.61894458518 56.5923524413 -3.05344970775 1.17597 0.187094 2.5361 1.17955 0.0253899 2.54286 1.18123 -0.458441 2.50135 1.1725 -0.0577796 2.54233 -7.97243 22.6417 4.48714 -8.15091 39.3024 9.57212 -0.0 0.0 -0.0 2.37294 12.5898 5.43219 12.0998 -18.8164 45.1218 3.52001 -60.1513 2.03891 -12.1969 -0.585745 1.44234 -1.87024 5.84787 -9.8425 -0.0 0.0 -0.0 12.7432 24.9186 -25.2063 -18.5249 -0.849519 -60.8371 0.197062 5.57561 -0.00959586 11.7746 -0.263768 1.47834 -0.698199 11.5147 9.64529 0.0 0.0 0.0 -8.7109 4.37757 22.2522 3.34134 -0.151948 -0.490101 29.2403 26.9985 -4.06946 -23.4931 0.0 0.0 -0.0 0.0 -0.0 38.4253 0.520586 -5.99434 -13.9085 -0.318461 -2.10545 5.58717 24.5316 0.956891 -16.8808 0.0 0.0 0.0 0.0 0.0 
2648.46554344 699.986 -1549.69831028 -4.33326300036 56.4458450992 -2.66309002103 1.09503 0.17715 2.58049 1.09874 0.0126431 2.58653 1.09994 -0.482887 2.54112 1.09094 -0.075645 2.58546 -8.05702 22.644 4.3993 -8.25533 39.3887 9.52231 -0.0 0.0 -0.0 2.59551 12.582 5.80291 13.0651 -19.2041 44.4985 3.78712 -61.9239 2.27264 -12.3654 -0.59596 1.46132 -1.89429 5.89516 -9.97985 -0.0 0.0 -0.0 12.879 25.1248 -25.4974 -18.5408 -1.67966 -61.0392 0.196923 5.57169 -0.0095824 12.1038 -0.266748 1.52029 -0.824602 10.6703 10.1493 0.0 0.0 0.0 -8.62394 4.5148 22.2388 3.40253 -0.154996 -0.498993 29.1752 26.9411 -4.06021 -23.396 0.0 0.0 -0.0 0.0 -0.0 39.2399 -0.17006 -6.9863 -12.8671 -0.312421 -1.94579 5.57971 26.1868 0.974079 -16.699 0.0 0.0 0.0 0.0 0.0 
2537.20816898 656.595 -1557.65571231 -8.64276280103 56.7579076208 1.78642393758 1.18976 0.341046 2.18541 1.1924 0.201326 2.20267 1.20068 -0.220108 2.20087 1.19394 0.130153 2.20801 -2.27752 20.5188 -0.848185 -1.43492 37.9239 1.6787 -0.0 0.0 -0.0 3.67248 13.0452 7.61651 15.4019 -19.9504 45.7085 4.24605 -64.5525 2.68252 -10.2614 -0.472438 1.22216 -1.91204 6.30467 -9.90267 -0.0 0.0 -0.0 13.0537 25.5339 -25.8554 -19.1606 -3.21862 -61.2499 0.227102 6.41892 -0.0127346 13.9931 -0.279186 1.76126 -1.75843 4.374 13.8285 0.0 0.0 0.0 -12.9581 4.63414 23.9969 2.64629 -0.117985 -0.38888 42.5562 24.9542 -5.40497 -21.3063 0.0 0.0 -0.0 0.0 -0.0 42.0651 -3.61468 -9.75956 -10.5343 -0.288366 -1.58869 -2.20432 19.8177 -0.368269 -20.1029 0.0 0.0 0.0 0.0 0.0 
